# 3ds Max Wavefront OBJ Exporter v0.99 - (c)2007 guruware
# File Created: 11.10.2023 22:17:19

mtllib cone.mtl

#
# object Cone001
#

v  0.0000 -0.6000 -0.0000
v  0.6928 -0.6000 -0.4000
v  0.8000 -0.6000 -0.0000
v  0.4000 -0.6000 -0.6928
v  -0.0000 -0.6000 -0.8000
v  -0.4000 -0.6000 -0.6928
v  -0.6928 -0.6000 -0.4000
v  -0.8000 -0.6000 -0.0000
v  -0.6928 -0.6000 0.4000
v  -0.4000 -0.6000 0.6928
v  -0.0000 -0.6000 0.8000
v  0.4000 -0.6000 0.6928
v  0.6928 -0.6000 0.4000
v  0.0000 0.6000 -0.0000
# 14 vertices

vn 0.0000 -1.0000 -0.0000
vn 0.8321 0.5547 0.0000
vn 0.8121 0.5414 -0.2176
vn 0.8121 0.5414 0.2176
vn 0.7206 0.5547 -0.4160
vn 0.5945 0.5414 -0.5945
vn 0.4160 0.5547 -0.7206
vn 0.2176 0.5414 -0.8121
vn -0.0000 0.5547 -0.8321
vn -0.2176 0.5414 -0.8121
vn -0.4160 0.5547 -0.7206
vn -0.5945 0.5414 -0.5945
vn -0.7206 0.5547 -0.4160
vn -0.8121 0.5414 -0.2176
vn -0.8321 0.5547 -0.0000
vn -0.8121 0.5414 0.2176
vn -0.7206 0.5547 0.4160
vn -0.5945 0.5414 0.5945
vn -0.4160 0.5547 0.7206
vn -0.2176 0.5414 0.8121
vn -0.0000 0.5547 0.8321
vn 0.2176 0.5414 0.8121
vn 0.4160 0.5547 0.7206
vn 0.5945 0.5414 0.5945
vn 0.7206 0.5547 0.4160
vn 1.0000 0.0000 -0.0000
# 26 vertex normals

vt 0.5000 0.0000 0.0000
vt 0.8333 0.0000 1.0000
vt 0.7500 0.0000 1.0000
vt 0.9167 0.0000 1.0000
vt 0.0000 0.0000 1.0000
vt -0.0833 0.0000 1.0000
vt 0.0833 0.0000 1.0000
vt 0.1667 0.0000 1.0000
vt 0.2500 0.0000 1.0000
vt 0.3333 0.0000 1.0000
vt 0.4167 0.0000 1.0000
vt 0.5000 0.0000 1.0000
vt 0.5833 0.0000 1.0000
vt 0.6667 0.0000 1.0000
vt 0.5000 1.0000 0.0000
# 15 texture coords

o Cone001
g Cone001
usemtl wire_227153153
s 1
f 1/1/1 2/2/1 3/3/1 
f 1/1/1 4/4/1 2/2/1 
f 1/1/1 5/5/1 4/6/1 
f 1/1/1 6/7/1 5/5/1 
f 1/1/1 7/8/1 6/7/1 
f 1/1/1 8/9/1 7/8/1 
f 1/1/1 9/10/1 8/9/1 
f 1/1/1 10/11/1 9/10/1 
f 1/1/1 11/12/1 10/11/1 
f 1/1/1 12/13/1 11/12/1 
f 1/1/1 13/14/1 12/13/1 
f 1/1/1 3/3/1 13/14/1 
s 8
f 3/3/2 14/15/3 14/15/4 
f 3/3/2 2/2/5 14/15/3 
f 2/2/5 14/15/6 14/15/3 
f 2/2/5 4/4/7 14/15/6 
f 4/4/7 14/15/8 14/15/6 
f 4/6/7 5/5/9 14/15/8 
f 5/5/9 14/15/10 14/15/8 
f 5/5/9 6/7/11 14/15/10 
f 6/7/11 14/15/12 14/15/10 
f 6/7/11 7/8/13 14/15/12 
f 7/8/13 14/15/14 14/15/12 
f 7/8/13 8/9/15 14/15/14 
f 8/9/15 14/15/16 14/15/14 
f 8/9/15 9/10/17 14/15/16 
f 9/10/17 14/15/18 14/15/16 
f 9/10/17 10/11/19 14/15/18 
f 10/11/19 14/15/20 14/15/18 
f 10/11/19 11/12/21 14/15/20 
f 11/12/21 14/15/22 14/15/20 
f 11/12/21 12/13/23 14/15/22 
f 12/13/23 14/15/24 14/15/22 
f 12/13/23 13/14/25 14/15/24 
f 13/14/25 14/15/4 14/15/24 
f 13/14/25 3/3/2 14/15/4 
s 1
f 14/15/26 14/15/26 14/15/26 
f 14/15/26 14/15/26 14/15/26 
f 14/15/26 14/15/26 14/15/26 
f 14/15/26 14/15/26 14/15/26 
f 14/15/26 14/15/26 14/15/26 
f 14/15/26 14/15/26 14/15/26 
f 14/15/26 14/15/26 14/15/26 
f 14/15/26 14/15/26 14/15/26 
f 14/15/26 14/15/26 14/15/26 
f 14/15/26 14/15/26 14/15/26 
f 14/15/26 14/15/26 14/15/26 
f 14/15/26 14/15/26 14/15/26 
# 48 faces

